<svg
  xmlns="http://www.w3.org/2000/svg"
  width="150" height="150" viewBox="0 0 150 150" id="svg-logo" preserveAspectRatio="xMidYMid meet">
  <title>Website Logo</title>
  <desc>SVG logo representing the initials of the website creator Ying Feng</desc>
  <path
    d="m 35.886797,69.090783 2.829425,-5.337525 a 1031.2972,1000.53 0 0 0 3.742702,-7.005884 q 1.449294,-2.740439 2.714674,-5.181975 a 486.86705,472.34219 0 0 0 2.345282,-4.587224 5.4812253,5.3177021 0 0 1 3.970623,-2.987491 9.8181055,9.5251986 0 0 1 2.159798,-0.215024 h 9.588608 a 3.6405271,3.531918 0 0 1 -0.182331,0.163171 q -0.40714,0.341606 -1.389566,1.056832 a 14.981805,14.534849 0 0 0 -2.408163,1.915411 11.592783,11.246933 0 0 0 -1.835981,2.354613 192.13683,186.40475 0 0 0 -3.005482,5.232302 q -3.283701,5.91703 -7.31878,13.98432 a 694.57044,673.84909 0 0 0 -3.822864,7.776014 q -3.45819,7.167538 -3.45819,10.522553 0,3.355016 1.17893,4.727521 a 3.8574496,3.742369 0 0 0 2.725676,1.351158 5.4655063,5.3024521 0 0 0 0.496732,0.02133 q 2.986618,0 8.331087,-6.10003 11.160515,-12.657571 24.678875,-39.802704 a 5.8364754,5.6623539 0 0 1 4.214269,-3.027118 9.5461664,9.2613722 0 0 1 1.916154,-0.175375 h 8.488278 q -4.086958,2.745012 -6.444815,6.938783 a 56.140511,54.465652 0 0 0 -1.512173,2.91124 q -1.705508,3.522769 -3.596513,8.450066 a 417.76462,405.30132 0 0 0 -1.463438,3.879621 q -2.001035,5.381756 -4.589961,12.726191 a 1381.327,1340.1173 0 0 0 -0.862975,2.456789 q -3.189386,9.107341 -5.226572,14.72852 a 529.6464,513.84528 0 0 1 -1.13963,3.114071 q 14.775885,-4.270026 22.635401,-15.097578 3.458182,-4.727528 9.902989,-16.775087 1.094044,-2.122812 1.955444,-1.682081 a 0.78123573,0.75792887 0 0 1 0.009,0.0045 2.1818012,2.1167108 0 0 1 0.41813,0.282136 1.2575223,1.2200062 0 0 1 0.44641,0.937883 q 0,0.762505 -2.593643,5.87128 -2.593635,5.108775 -5.265875,9.455046 -2.672232,4.346273 -6.916372,8.921297 -4.244139,4.575024 -9.431416,7.243788 a 71.083021,68.962377 0 0 1 -3.975343,1.880317 q -2.0922,0.91806 -4.555371,1.87729 a 172.72383,167.57092 0 0 1 -5.302019,1.96122 q -12.103685,21.35011 -24.364526,31.41516 a 43.153449,41.866038 0 0 1 -11.171515,6.56821 36.034302,34.959278 0 0 1 -13.664553,2.58184 26.437835,25.649105 0 0 1 -4.107381,-0.28975 q -2.1346425,-0.32634 -3.8590205,-1.02024 a 11.913452,11.558034 0 0 1 -2.7225398,-1.51127 11.152651,10.81993 0 0 1 -2.1472201,-2.074 7.9176748,7.6814638 0 0 1 -1.6253467,-4.71228 q 0,-3.96502 2.3578542,-8.99755 a 24.474527,23.744372 0 0 1 6.4448039,-7.59455 q 2.834142,-2.24937 6.562692,-4.08548 a 46.852138,45.454381 0 0 1 1.768394,-0.82503 75.401035,73.15157 0 0 1 6.432228,-2.56202 q 3.164239,-1.11022 6.861355,-2.16703 a 175.11628,169.89196 0 0 1 7.927107,-2.05724 1657.4552,1608.0078 0 0 0 5.325606,-1.26881 q 8.703626,-2.09077 11.650943,-2.92496 a 69.915093,67.829292 0 0 0 2.967754,-5.747752 q 4.606106,-9.927792 10.42372,-28.16536 a 568.17844,551.22777 0 0 0 0.127313,-0.399548 q -9.117034,15.55508 -15.247458,21.807614 -4.033504,4.114466 -8.136167,5.522051 a 12.770139,12.389163 0 0 1 -4.281862,0.730478 q -8.488277,0 -9.902989,-6.862536 a 2.8750105,2.7892392 0 0 1 -0.286059,-0.713704 q -0.251484,-0.976002 -0.02851,-2.488813 0.28921,-1.965734 0.378859,-2.897512 a 16.027122,15.54898 0 0 0 0.01423,-0.15251 3.7316974,3.6203685 0 0 1 0.09275,-0.529175 q 0.22166,-0.899755 0.92899,-2.444587 0.869265,-1.895584 1.204079,-2.821264 a 10.295963,9.9887999 0 0 0 0.05346,-0.152511 q 1.650567,-3.3474 2.870358,-5.305511 a 28.517462,27.66669 0 0 1 0.116332,-0.1845 3.6782527,3.5685183 0 0 1 -0.638188,-0.04899 q -1.691387,-0.291077 -0.807983,-2.317838 a 6.3442,6.1549311 0 0 1 0.03148,-0.0732 z m 70.892813,22.417614 0.47155,1.982515 h 0.4716 a 8.5385768,8.2838423 0 0 0 3.59494,-0.823505 q 2.5622,-1.148335 5.28159,-3.89487 a 30.166389,29.266425 0 0 0 0.0833,-0.08542 56.068204,54.395503 0 0 0 5.21872,-6.124433 46.803407,45.407107 0 0 0 2.4836,-3.788119 186.1353,180.58227 0 0 0 2.08592,-3.660019 q 1.60806,-2.90666 2.78699,-5.337524 a 112.78402,109.41931 0 0 1 0.44955,-0.916531 q 1.21352,-2.441538 1.71337,-3.078993 a 0.93842599,0.91042963 0 0 1 0.19493,-0.198217 1.8485578,1.7934091 0 0 1 0.25149,-0.138793 q 0.32693,-0.144902 0.61303,-0.08998 0.39301,0.07626 0.70737,0.305019 a 0.72621913,0.70455359 0 0 1 0.24994,0.341621 q 0.044,0.122027 0.0582,0.272974 a 1.7007989,1.6500584 0 0 1 0.007,0.1479 2.2195269,2.1533109 0 0 1 -0.0833,0.570386 q -0.0691,0.242484 -0.19332,0.49713 a 3.9061787,3.7896443 0 0 1 -0.038,0.07626 142.88597,138.62321 0 0 1 -4.87606,9.795126 q -10.5286,19.02752 -20.74596,19.02752 0.14461,2.246335 0.15558,7.144676 a 391.55471,379.87334 0 0 1 0.002,0.86162 34.265912,33.243645 0 0 1 -0.22321,3.55936 q -0.393,3.50296 -1.47759,8.32807 a 163.03148,158.16769 0 0 1 -1.12862,4.6589 q -2.82943,10.98007 -9.510012,19.67261 a 31.684846,30.739581 0 0 1 -3.783571,4.15259 q -5.033234,4.53995 -10.599342,4.53995 a 12.446327,12.07501 0 0 1 -3.42046,-0.41633 q -3.837019,-1.06597 -4.855611,-4.86477 a 12.737129,12.357138 0 0 1 -0.369415,-3.10648 35.644469,34.581077 0 0 1 0.77495,-6.46756 q 2.145646,-10.61251 10.231514,-30.40254 A 582.75314,565.36766 0 0 1 88.546394,91.813401 20.37972,19.771724 0 0 1 87.634696,90.181642 Q 86.65962,88.205234 86.65962,86.780875 a 22.685703,22.008912 0 0 1 0.18079,-2.894463 q 0.43542,-3.167444 1.914578,-4.840378 a 5.3727641,5.2124765 0 0 1 0.891272,-0.805206 q 2.20066,-1.830007 3.693968,-1.830007 a 22.437341,21.76796 0 0 1 0.605182,0.0075 q 0.859832,0.02305 1.251231,0.114347 a 1.3817026,1.3404819 0 0 1 0.108491,0.03054 q 17.919638,-39.192649 32.223968,-65.11778 2.82942,-5.4900285 5.81603,-8.0825415 a 10.387135,10.077251 0 0 1 5.72487,-2.48118776 14.040237,13.621369 0 0 1 1.82027,-0.11132797 3.5006277,3.3961923 0 0 1 0.3018,0.0167726 q 0.79853,0.0686237 2.842,0.44072983 2.51505,0.4575022 3.77257,0.3050035 a 42.729035,41.454285 0 0 0 -3.92818,4.1983462 q -6.69474,8.0520401 -16.82094,25.3868041 a 563.03204,546.23491 0 0 0 -19.24638,36.113707 636.98847,617.98498 0 0 0 -6.06125,12.839039 q 3.61537,4.270025 5.03008,11.437558 z m -57.060069,21.350113 3.458189,-5.64253 q -20.750692,5.24603 -29.226392,8.14964 a 50.195574,48.698073 0 0 0 -3.469191,1.30541 32.390631,31.424309 0 0 0 -7.895668,4.66652 26.126598,25.347153 0 0 0 -6.565835,7.99104 19.147348,18.576119 0 0 0 -1.053176,2.44154 q -0.6759192,1.97182 -0.6759192,3.73475 0,2.82127 2.2006661,4.34627 a 8.2289114,7.9834154 0 0 0 3.1752418,1.30998 11.594355,11.248457 0 0 0 2.3264143,0.21504 q 9.117041,0 19.491599,-9.0738 10.374559,-9.07379 18.234071,-19.44383 z m 31.123674,28.06013 q 0,4.42252 2.515044,4.42252 a 3.852734,3.7377941 0 0 0 1.74796,-0.47885 q 2.637655,-1.32371 6.50454,-6.30743 a 43.642313,42.340315 0 0 0 3.874735,-6.06953 q 2.834135,-5.33295 5.085106,-12.53556 a 95.296616,92.453599 0 0 0 2.52605,-9.91866 q 1.16791,-6.10308 1.16791,-11.507699 v -1.525012 h -1.41471 A 13.697562,13.288918 0 0 1 99.009701,96.498235 11.067767,10.737579 0 0 1 95.14753,94.558426 571.929,554.86644 0 0 0 90.287213,106.87592 q -9.443998,24.87438 -9.443998,34.04272 z M 103.00705,94.100912 h 0.94314 a 25.007403,24.261349 0 0 0 -0.75138,-4.553674 q -0.95727,-3.490741 -3.02118,-5.968879 L 96.719437,91.2034 q 1.389562,2.560484 5.231293,2.857864 a 13.252714,12.857341 0 0 0 1.05632,0.03977 z"
    vector-effect="non-scaling-stroke" />
  <path
    d="m 101.14008,64.985695 c -0.51229,0.03742 -0.92443,0.427853 -1.204062,0.829924 -0.547645,0.892368 -0.957879,1.860164 -1.413414,2.800887 -1.157854,2.483245 -2.298899,4.974471 -3.447788,7.462055 -0.304062,-0.01942 -0.608045,-0.04018 -0.912091,-0.05995 -1.409258,2.347447 -2.798537,4.688546 -4.374676,6.933777 -0.998127,1.433869 -2.074153,2.815703 -3.272345,4.088701 -0.074,0.128439 -0.296135,0.219699 -0.253519,0.377317 0.225766,0.988613 0.525849,1.965783 0.9866,2.872118 0.115953,0.247431 0.278593,0.501891 0.561914,0.569053 0.130511,0.07101 0.2756,-0.05714 0.397126,-0.10863 0.459925,-0.387572 0.83008,-0.870445 1.234038,-1.314162 2.0179,-2.322835 3.894704,-4.775303 5.49938,-7.403462 1.975382,-3.223591 3.776295,-6.551499 5.489317,-9.920933 0.75716,-1.52581 1.53261,-3.047741 2.14469,-4.639088 0.20977,-0.506619 0.27979,-1.112671 -0.009,-1.604213 -0.26798,-0.466463 -0.76385,-0.819963 -1.30159,-0.882878 -0.0415,2.94e-4 -0.0832,-0.0063 -0.12454,-5.19e-4 z" />
</svg>
