<svg
  xmlns="http://www.w3.org/2000/svg"
  width="150" height="150" viewBox="0 0 150 150" id="svg-favicon" preserveAspectRatio="xMidYMid meet">
  <title>Favicon</title>
  <desc>This is a favicon representing the initials of the website creator Ying Feng</desc>
  <g style="fill: #b95d90">
    <path
       d="m 137.1306,0.02010336 c -4.35419,0.23351409 -8.28064,2.97503154 -10.5525,6.61347454 -3.00154,4.3093091 -5.12258,9.1411381 -7.68057,13.7116171 -8.0323,15.186165 -15.27078,30.772687 -22.713367,46.25215 -1.396605,2.560982 -2.806272,5.114385 -4.22427,7.663575 -4.11554,0.578381 -7.41924,4.207162 -8.02303,8.258232 -0.248068,1.290079 -0.297242,2.611956 -0.368421,3.916114 -3.850386,3.853292 -8.596053,6.731907 -13.639258,8.745281 4.707831,-13.041059 8.882766,-26.269696 14.29629,-39.033212 1.605565,-3.692237 3.733061,-7.42388 7.14728,-9.762408 1.942808,-1.449525 4.069316,-2.79806 6.100633,-4.184216 -5.876923,0.129612 -11.772117,-0.259293 -17.634263,0.275411 -2.879733,0.618198 -5.060212,3.026008 -6.046347,5.715948 -6.451805,12.650507 -13.205211,25.308106 -22.320084,36.277657 -1.962116,2.174526 -3.87778,4.591554 -6.599561,5.842633 -1.034229,0.33909 -2.293789,-0.268365 -2.451066,-1.396351 -0.672893,-2.416323 0.09201,-4.946988 0.925028,-7.225654 1.648789,-4.234979 3.805673,-8.267904 5.765661,-12.348834 3.28151,-6.606506 6.622462,-13.201163 10.50311,-19.47972 1.7998,-2.368326 4.676909,-3.586587 6.569003,-5.873235 0.483869,-0.32117 0.534343,-0.713191 0.111611,-1.108267 -0.865659,-1.056248 -2.344947,-0.57087 -3.51131,-0.656635 -4.008161,0.02934 -8.043057,-0.220676 -12.029281,0.279082 -2.644762,0.597892 -4.682714,2.756296 -5.641468,5.226904 -3.576073,7.195272 -7.529279,14.20402 -11.049135,21.424523 -0.365639,1.144417 -0.13461,2.477529 0.63028,3.40967 -1.726275,3.258458 -3.444386,6.602314 -4.230029,10.229191 -0.429472,2.440436 -0.726628,5.015796 0.126329,7.403702 0.860752,2.884123 2.918413,5.483758 5.784775,6.559908 4.339828,1.723383 9.413397,1.098806 13.436431,-1.17501 4.747154,-2.652312 8.104796,-7.078728 11.342484,-11.324861 0.523098,-0.797286 0.02619,0.323183 -0.07483,0.659969 -1.907974,5.129229 -4.00955,10.247792 -6.59825,15.033072 -12.241807,3.444826 -24.979721,5.431026 -36.631893,10.722986 -5.704176,2.57773 -11.1855002,6.28374 -14.482341,11.73307 -2.1361956,3.53361 -3.44051874,7.65228 -3.36514332,11.80076 0.10125917,3.74487 2.71667682,6.99368 5.90418942,8.73554 3.9122681,2.18794 8.5582729,2.44622 12.9382339,2.16298 9.092655,-0.62997 17.724283,-4.77458 24.424956,-10.86576 7.900899,-7.11335 14.051475,-15.91297 19.553026,-24.94693 0.852546,-1.42596 1.694066,-2.85711 2.521119,-4.29796 6.142143,-2.29697 12.403503,-4.59394 17.762259,-8.46793 -4.957691,11.91728 -9.875555,23.94717 -12.657973,36.59227 -0.754694,3.83992 -1.317771,8.00045 0.219156,11.72691 1.200799,2.62735 3.827052,4.50305 6.657695,4.89146 5.026738,1.00579 10.27647,-0.96885 14.016999,-4.3299 4.27099,-3.75711 7.374293,-8.64548 9.922592,-13.68302 3.33656,-6.80841 5.13614,-14.24911 6.3391,-21.69957 0.64891,-3.96871 0.70812,-8.00193 0.51391,-12.011278 0.0132,-0.416209 0.76406,-0.237164 1.09454,-0.426801 4.60755,-1.182279 8.28615,-4.509962 11.25283,-8.086138 5.22972,-6.19426 8.84631,-13.52255 12.23546,-20.82927 0.55961,-1.165354 0.85417,-2.609187 0.1036,-3.764677 -0.95926,-1.792633 -3.65992,-1.999749 -5.01397,-0.554626 -0.92486,1.000187 -1.33597,2.351741 -2.01706,3.51329 -3.10397,6.106573 -6.20697,12.341781 -10.87109,17.438916 -1.97526,2.094923 -4.04189,4.339108 -6.81889,5.33493 -0.4962,0.293304 -1.03919,0.223365 -0.97778,-0.474384 -0.48215,-2.345984 -1.23659,-4.648842 -2.22426,-6.833163 -0.6021,-1.292435 -1.30936,-2.540418 -2.16249,-3.684561 9.48115,-20.554361 19.83832,-40.703768 32.00077,-59.810813 3.03748,-4.810439 6.24632,-9.541623 10.12701,-13.7410167 1.57473,-1.7674877 3.33109,-3.3653903 5.05789,-4.9733795 0.36206,-0.58207079 -0.38929,-1.03024166 -0.92118,-0.83399214 -3.03786,0.52996009 -6.19377,0.593855 -9.19927,-0.16911669 -0.87759,-0.13036551 -1.76896,-0.13606335 -2.65387,-0.09853661 z M 99.156719,88.045065 c 0.422868,1.129978 0.742513,2.297514 0.973541,3.481432 -0.820851,-0.158215 -1.643385,-0.41619 -2.323309,-0.917391 0.41954,-0.931615 0.839081,-1.863229 1.258621,-2.794844 0.03038,0.07693 0.06077,0.153869 0.09115,0.230803 z m -3.620715,9.470659 c 1.642523,0.652321 3.395893,1.012635 5.158596,1.115222 -0.20154,8.050414 -2.020163,15.929604 -4.72858,23.467644 -2.343177,6.62208 -5.581802,13.16084 -10.774471,18.01918 -0.831048,0.69107 -1.630832,1.72555 -2.792519,1.72754 -0.679891,-2.18378 -0.16818,-4.37412 0.128882,-6.57727 1.23235,-7.48511 3.794651,-14.65834 6.226609,-21.81684 1.928387,-5.44871 4.03267,-10.83269 6.143445,-16.212827 0.21268,0.09245 0.425358,0.184901 0.638038,0.277351 z M 48.54233,110.0644 c -2.391796,3.5947 -5.310806,6.79853 -8.171444,10.0195 -4.606289,5.00903 -9.527543,9.75442 -15.10861,13.68638 -3.98185,2.61387 -8.69489,4.59378 -13.545255,4.1731 -1.702511,-0.19257 -3.7135161,-1.08068 -4.0212586,-2.95916 -0.3004597,-1.77099 0.3480648,-3.45286 1.049299,-5.00179 2.3366816,-5.25636 7.0327146,-9.23915 12.1050776,-11.61862 3.468525,-1.5771 7.116417,-2.64941 10.73201,-3.77254 5.662246,-1.67907 11.361843,-3.19379 17.068784,-4.69562 -0.0362,0.0563 -0.07241,0.1125 -0.108603,0.16875 z"/>
    <path
       d="m 101.14008,64.985695 c -0.51229,0.03742 -0.92443,0.427853 -1.204062,0.829924 -0.547645,0.892368 -0.957879,1.860164 -1.413414,2.800887 -1.157854,2.483245 -2.298899,4.974471 -3.447788,7.462055 -0.304062,-0.01942 -0.608045,-0.04018 -0.912091,-0.05995 -1.409258,2.347447 -2.798537,4.688546 -4.374676,6.933777 -0.998127,1.433869 -2.074153,2.815703 -3.272345,4.088701 -0.074,0.128439 -0.296135,0.219699 -0.253519,0.377317 0.225766,0.988613 0.525849,1.965783 0.9866,2.872118 0.115953,0.247431 0.278593,0.501891 0.561914,0.569053 0.130511,0.07101 0.2756,-0.05714 0.397126,-0.10863 0.459925,-0.387572 0.83008,-0.870445 1.234038,-1.314162 2.0179,-2.322835 3.894704,-4.775303 5.49938,-7.403462 1.975382,-3.223591 3.776295,-6.551499 5.489317,-9.920933 0.75716,-1.52581 1.53261,-3.047741 2.14469,-4.639088 0.20977,-0.506619 0.27979,-1.112671 -0.009,-1.604213 -0.26798,-0.466463 -0.76385,-0.819963 -1.30159,-0.882878 -0.0415,2.94e-4 -0.0832,-0.0063 -0.12454,-5.19e-4 z" />
  </g>
</svg>
